<svg width="136" height="59" viewBox="0 0 136 59" fill="none" xmlns="http://www.w3.org/2000/svg">
<path d="M117.639 58.6014C115.769 58.6014 114.093 58.1764 112.611 57.3262C111.154 56.4518 110 55.2737 109.15 53.792C108.3 52.2861 107.875 50.5736 107.875 48.6547C107.875 46.7358 108.3 45.0355 109.15 43.5538C110 42.0479 111.154 40.8698 112.611 40.0197C114.093 39.1452 115.769 38.708 117.639 38.708C119.485 38.708 121.137 39.1452 122.594 40.0197C124.076 40.8698 125.242 42.0479 126.092 43.5538C126.942 45.0355 127.367 46.7358 127.367 48.6547C127.367 50.5736 126.942 52.2861 126.092 53.792C125.242 55.2737 124.076 56.4518 122.594 57.3262C121.137 58.1764 119.485 58.6014 117.639 58.6014ZM117.639 55.1766C118.781 55.1766 119.801 54.8972 120.7 54.3386C121.599 53.7556 122.303 52.9783 122.813 52.0067C123.323 51.0108 123.566 49.8935 123.542 48.6547C123.566 47.3917 123.323 46.2743 122.813 45.3027C122.303 44.3068 121.599 43.5296 120.7 42.9709C119.801 42.4122 118.781 42.1329 117.639 42.1329C116.498 42.1329 115.465 42.4244 114.542 43.0073C113.644 43.566 112.939 44.3433 112.429 45.3392C111.919 46.3108 111.676 47.4159 111.7 48.6547C111.676 49.8935 111.919 51.0108 112.429 52.0067C112.939 52.9783 113.644 53.7556 114.542 54.3386C115.465 54.8972 116.498 55.1766 117.639 55.1766Z" fill="black"/>
<path d="M97.6032 58.2369V34.2263H101.356V58.2369H97.6032ZM93.6318 42.7521V39.1086H105.801V42.7521H93.6318Z" fill="black"/>
<path d="M79.8788 58.6013C78.5186 58.6013 77.3284 58.2855 76.3082 57.654C75.3123 57.0225 74.535 56.1359 73.9764 54.9942C73.442 53.8526 73.1748 52.4924 73.1748 50.9135V39.1086H76.9276V49.8934C76.9276 51.0107 77.0976 51.9823 77.4377 52.8082C77.802 53.6097 78.3121 54.2291 78.9679 54.6663C79.6481 55.1036 80.4618 55.3222 81.4091 55.3222C82.1135 55.3222 82.7572 55.2129 83.3401 54.9942C83.9231 54.7513 84.421 54.4234 84.834 54.0105C85.2712 53.5976 85.6112 53.0996 85.8541 52.5167C86.097 51.9337 86.2185 51.3022 86.2185 50.6221V39.1086H89.9713V58.237H86.2185V54.2291L86.8743 53.7919C86.5828 54.6906 86.0849 55.5043 85.3805 56.233C84.7004 56.9617 83.8867 57.5447 82.9393 57.9819C81.992 58.3948 80.9719 58.6013 79.8788 58.6013Z" fill="black"/>
<path d="M46.3066 58.2371L56.1805 32.7327H60.1883L69.9893 58.2371H65.7993L59.9697 42.8616C59.8968 42.6915 59.7511 42.2786 59.5325 41.6228C59.3382 40.9669 59.1074 40.2383 58.8402 39.4367C58.573 38.6351 58.3301 37.9064 58.1115 37.2506C57.8929 36.5705 57.7472 36.1333 57.6743 35.9389L58.5123 35.9025C58.3666 36.3154 58.1844 36.8377 57.9658 37.4692C57.7715 38.1007 57.5529 38.7687 57.31 39.4731C57.0914 40.1775 56.8728 40.8455 56.6541 41.477C56.4355 42.0843 56.2534 42.5944 56.1076 43.0073L50.3145 58.2371H46.3066ZM50.6788 51.8974L52.1362 48.1082H63.7225L65.3985 51.8974H50.6788Z" fill="#2570EB"/>
<path d="M34.202 58.6014C32.3317 58.6014 30.6557 58.1764 29.174 57.3262C27.7166 56.4518 26.5629 55.2737 25.7127 53.792C24.8626 52.2861 24.4375 50.5736 24.4375 48.6547C24.4375 46.7358 24.8626 45.0355 25.7127 43.5538C26.5629 42.0479 27.7166 40.8698 29.174 40.0197C30.6557 39.1452 32.3317 38.708 34.202 38.708C36.0481 38.708 37.6998 39.1452 39.1572 40.0197C40.6389 40.8698 41.8048 42.0479 42.6549 43.5538C43.5051 45.0355 43.9302 46.7358 43.9302 48.6547C43.9302 50.5736 43.5051 52.2861 42.6549 53.792C41.8048 55.2737 40.6389 56.4518 39.1572 57.3262C37.6998 58.1764 36.0481 58.6014 34.202 58.6014ZM34.202 55.1766C35.3437 55.1766 36.3638 54.8972 37.2626 54.3386C38.1613 53.7556 38.8657 52.9783 39.3758 52.0067C39.8859 51.0108 40.1288 49.8935 40.1045 48.6547C40.1288 47.3917 39.8859 46.2743 39.3758 45.3027C38.8657 44.3068 38.1613 43.5296 37.2626 42.9709C36.3638 42.4122 35.3437 42.1329 34.202 42.1329C33.0604 42.1329 32.0281 42.4244 31.1051 43.0073C30.2064 43.566 29.5019 44.3433 28.9919 45.3392C28.4818 46.3108 28.2389 47.4159 28.2632 48.6547C28.2389 49.8935 28.4818 51.0108 28.9919 52.0067C29.5019 52.9783 30.2064 53.7556 31.1051 54.3386C32.0281 54.8972 33.0604 55.1766 34.202 55.1766Z" fill="black"/>
<path d="M12.1692 58.6013C10.3961 58.6013 8.76866 58.2855 7.28697 57.654C5.80529 57.0224 4.51792 56.1237 3.42488 54.9578C2.33183 53.7676 1.48168 52.3709 0.874437 50.7678C0.291479 49.1647 0 47.4036 0 45.4847C0 43.663 0.315769 41.9748 0.947307 40.4203C1.60313 38.8414 2.50186 37.4569 3.64349 36.2667C4.78511 35.0765 6.10891 34.1535 7.61489 33.4977C9.12086 32.8418 10.7483 32.5139 12.4972 32.5139C13.7359 32.5139 14.9383 32.7082 16.1042 33.0969C17.2944 33.4612 18.3632 33.9835 19.3105 34.6636C20.2821 35.3194 21.0715 36.0724 21.6787 36.9225L19.0554 39.6551C18.351 38.9507 17.6345 38.3678 16.9058 37.9063C16.2014 37.4205 15.4727 37.0561 14.7197 36.8132C13.991 36.5703 13.2501 36.4489 12.4972 36.4489C11.307 36.4489 10.1896 36.6796 9.14515 37.1411C8.12498 37.5784 7.22625 38.1978 6.44897 38.9993C5.69598 39.8009 5.10088 40.7603 4.66366 41.8777C4.22645 42.9707 4.00784 44.1731 4.00784 45.4847C4.00784 46.8693 4.2143 48.1323 4.62723 49.274C5.06445 50.3913 5.67169 51.3507 6.44897 52.1523C7.22625 52.9539 8.14927 53.5733 9.21802 54.0105C10.3111 54.4234 11.5134 54.6299 12.8251 54.6299C13.6266 54.6299 14.4161 54.5206 15.1933 54.302C15.9706 54.0834 16.6993 53.7676 17.3794 53.3547C18.0596 52.9417 18.6789 52.4559 19.2376 51.8973L21.2051 55.1035C20.6464 55.7594 19.8813 56.3545 18.9097 56.8888C17.9624 57.4232 16.8936 57.8483 15.7034 58.1641C14.5375 58.4555 13.3595 58.6013 12.1692 58.6013Z" fill="#2570EB"/>
<path fill-rule="evenodd" clip-rule="evenodd" d="M110.819 21.054C123.548 21.4379 130.29 26.0367 133.409 31.8558C136.526 37.6721 135.903 44.4947 134.407 48.9834L132.967 48.5033C134.383 44.2542 134.925 37.8974 132.071 32.573C129.253 27.3145 123.001 22.8478 110.369 22.5607L109.95 22.5512L109.735 22.1924C107.241 18.0365 102.152 12.0107 95.0365 7.53558C87.9332 3.06844 78.8422 0.163998 68.2944 2.15954C46.8267 6.22099 34.2956 13.5093 30.7867 16.5503L30.5727 16.7358H30.2896C27.6922 16.7358 23.8945 17.2716 20.9218 18.8332C19.443 19.6099 18.206 20.6206 17.4038 21.9076C16.6097 23.1817 16.2094 24.7771 16.479 26.7986L14.9742 26.9993C14.6612 24.6519 15.1226 22.6976 16.1155 21.1046C17.1003 19.5246 18.5756 18.3508 20.2158 17.4892C23.3711 15.8317 27.2747 15.2564 30.0086 15.2196C34.0367 11.8649 46.7693 4.68679 68.0122 0.66788C79.0175 -1.41421 88.4943 1.6279 95.8447 6.25047C102.983 10.7398 108.147 16.7365 110.819 21.054Z" fill="black"/>
<path fill-rule="evenodd" clip-rule="evenodd" d="M107.546 23.7299C109.006 22.897 109.534 22.1174 109.646 21.6313L111.126 21.9727C110.874 23.0643 109.909 24.1293 108.298 25.0486C106.662 25.9813 104.247 26.8327 100.855 27.4458C94.069 28.6723 83.2444 28.9678 66.6045 26.9243L66.7895 25.4175C83.3532 27.4516 94.0089 27.1404 100.585 25.9519C103.874 25.3574 106.109 24.5492 107.546 23.7299Z" fill="black"/>
</svg>
